<?xml version="1.0" standalone="no"?><!DOCTYPE svg PUBLIC "-//W3C//DTD SVG 1.1//EN" "http://www.w3.org/Graphics/SVG/1.1/DTD/svg11.dtd"><svg t="1568609876956" class="icon" viewBox="0 0 1026 1024" version="1.1" xmlns="http://www.w3.org/2000/svg" p-id="2467" xmlns:xlink="http://www.w3.org/1999/xlink" width="200.390625" height="200"><defs><style type="text/css"></style></defs><path d="M988.603305 316.567957L401.811106 903.360156l-17.693844-17.693843 17.693844 17.693843L0 1013.7054l16.085312-50.186175 100.694057-335.539618 22.197731 12.86825-22.197731-12.86825L707.753749 36.361814a123.856906 123.856906 0 0 1 175.329906 0l105.51965 105.197944a123.856906 123.856906 0 0 1 0 175.329906zM72.705612 947.433913l298.865106-83.643625 32.170625-32.170625L193.02375 622.510601l-32.170625 32.170625-88.147513 292.752687z m154.419-359.989294l210.395887 210.395888L848.33938 386.056507l-210.395887-209.430768zM943.242724 166.331139l-84.608744-84.608744c-48.255937-48.255937-77.2095-48.255937-125.787144 0L673.009474 141.559758l210.395887 210.395887 59.837363-59.837363c48.255937-48.577644 48.255937-77.531206 0-125.787143zM367.710243 87.513108c-48.255937-48.255937-77.2095-48.255937-125.787143 0L42.143519 287.614395 7.077537 252.548414l210.074181-210.395888a123.856906 123.856906 0 0 1 175.329906 0l115.81425 115.81425L473.229893 193.032757zM128.6825 304.986532l71.097081-69.810256L234.845562 269.920551l-70.131962 70.131963-3.860475-4.182182 39.248162 39.248163 104.876238-105.197944 35.065981 35.065981-105.197944 105.197944 10.616306 10.616306-35.065981 35.065981-168.252368-168.252368L77.2095 252.548414z m491.567149 490.923737L725.447593 900.786506l52.438118 52.438119 165.035306-165.035306c48.255937-48.255937 48.255937-77.2095 0-125.787143l-110.666949-110.66695L868.606874 517.312657l120.96155 120.96155a123.856906 123.856906 0 0 1 0 175.329906l-175.329906 175.329906-35.065982 35.065981-36.0311-35.387687-173.721374-173.399669 35.065981-35.065981z m140.263925-70.131962l-105.197944 105.197943-35.065981-35.065981 105.197944-105.197944 35.065981 35.065982z m17.372137 52.438118l35.065982 35.065982L725.447593 900.786506l-35.065982-35.065981z" p-id="2468" fill="#e6e6e6"></path></svg>
