<?xml version="1.0" standalone="no"?><!DOCTYPE svg PUBLIC "-//W3C//DTD SVG 1.1//EN" "http://www.w3.org/Graphics/SVG/1.1/DTD/svg11.dtd"><svg t="1571907863398" class="icon" viewBox="0 0 1024 1024" version="1.1" xmlns="http://www.w3.org/2000/svg" p-id="3743" xmlns:xlink="http://www.w3.org/1999/xlink" width="32" height="32"><defs><style type="text/css"></style></defs><path d="M997.8112 935.3984c-26.5984-38.1952-49.9456-67.4048-75.8528-88.8576-25.5488-21.4016-56.2944-34.4064-88.6016-34.0992-29.7472 0.1024-58.496 9.4464-89.7536 24.0896-31.36 14.7456-65.792 35.3536-107.1104 61.312-38.912 24.3456-68.4032 31.5904-90.2912 31.5904-31.8976-0.1536-52.8896-15.0016-68.992-32.3584 99.6096-5.4016 188.8512-54.656 253.1584-129.4592 68.4544-79.488 110.0032-188.0576 110.0544-307.2256-0.0512-119.1936-41.6-227.7376-110.0544-307.2512-68.2496-79.4112-164.7104-130.048-271.6928-129.9712C351.6416 23.1168 255.1808 73.7536 186.9056 153.1648c-68.4544 79.488-110.0032 188.0576-110.0288 307.2512 0.0256 119.1936 41.5744 227.7376 110.0288 307.2256 52.992 61.6448 123.0592 105.856 201.8304 122.5472 1.6896 3.9936 11.9296 28.4928 35.328 54.5024 23.808 26.8032 64.896 56.0896 121.728 56.0896 0.1024 0 0.256 0 0.4096 0 38.1952 0 81.1008-12.9536 128.256-42.5472 40.448-25.4464 73.1904-44.8 99.5072-57.1392 26.3936-12.4928 45.5936-17.408 59.392-17.3056 14.7968 0.3072 25.9584 3.9936 43.2896 17.8944 16.9984 13.8496 37.7088 38.4512 62.592 74.3936 11.2128 16.2048 33.4592 20.1984 49.6128 8.96C1005.056 973.7984 1009.0496 951.6032 997.8112 935.3984zM482.4576 95.7184C557.1584 102.4 624.7936 140.1088 676.352 199.7568c31.2576 36.1984 56.0896 80.4096 72.192 129.8944L482.4576 329.6512 482.4576 95.7184zM240.9472 199.7568c51.5328-59.648 119.1936-97.3824 193.92-104.0384l0 233.9584L168.7296 329.6768C184.8576 280.1664 209.6896 235.9552 240.9472 199.7568zM240.9472 721.0496c-56.832-65.792-92.7488-158.1056-92.7232-260.6336 0-20.2496 1.4336-40.0896 4.1472-59.4432l612.5824 0c2.6624 19.3536 4.096 39.1936 4.096 59.4432 0.0512 102.528-35.8912 194.8416-92.6976 260.6848-56.96 65.8944-133.6064 105.1904-217.6768 105.2416C374.528 826.2912 297.9328 786.9952 240.9472 721.0496z" p-id="3744"></path></svg>
