<?xml version="1.0" standalone="no"?><!DOCTYPE svg PUBLIC "-//W3C//DTD SVG 1.1//EN" "http://www.w3.org/Graphics/SVG/1.1/DTD/svg11.dtd"><svg t="1568609970550" class="icon" viewBox="0 0 1024 1024" version="1.1" xmlns="http://www.w3.org/2000/svg" p-id="4480" xmlns:xlink="http://www.w3.org/1999/xlink" width="200" height="200"><defs><style type="text/css"></style></defs><path d="M192 752a64 64 0 1 1-64 64 64.07 64.07 0 0 1 64-64m0-64a128 128 0 1 0 128 128 128 128 0 0 0-128-128zM512 752a64 64 0 1 1-64 64 64.07 64.07 0 0 1 64-64m0-64a128 128 0 1 0 128 128 128 128 0 0 0-128-128zM512 144a64 64 0 1 1-64 64 64.07 64.07 0 0 1 64-64m0-64a128 128 0 1 0 128 128A128 128 0 0 0 512 80zM832 752a64 64 0 1 1-64 64 64.07 64.07 0 0 1 64-64m0-64a128 128 0 1 0 128 128 128 128 0 0 0-128-128zM192 432a32.09 32.09 0 0 0-32 32v160a32 32 0 0 0 64 0V464a32.09 32.09 0 0 0-32-32zM512.11 368h-0.22A32 32 0 0 0 480 399.89v224.22A32 32 0 0 0 511.89 656h0.22A32 32 0 0 0 544 624.11V399.89A32 32 0 0 0 512.11 368z" fill="#e6e6e6" p-id="4481"></path><path d="M831 432H192a32 32 0 0 0 0 64h639a32 32 0 0 0 0-64z" fill="#e6e6e6" p-id="4482"></path><path d="M831 432a32.09 32.09 0 0 0-32 32v160a32 32 0 0 0 64 0V464a32.09 32.09 0 0 0-32-32z" fill="#e6e6e6" p-id="4483"></path></svg>
