<?xml version="1.0" standalone="no"?><!DOCTYPE svg PUBLIC "-//W3C//DTD SVG 1.1//EN" "http://www.w3.org/Graphics/SVG/1.1/DTD/svg11.dtd"><svg t="1568190709941" class="icon" viewBox="0 0 1024 1024" version="1.1" xmlns="http://www.w3.org/2000/svg" p-id="7413" xmlns:xlink="http://www.w3.org/1999/xlink" width="200" height="200"><defs><style type="text/css"></style></defs><path d="M608.402286 537.380571L527.872 618.496 396.434286 486.4l75.190857-75.702857-38.253714-38.473143-75.337143 75.629714L281.6 370.834286 190.317714 462.628571c-89.307429 88.722286-97.28 231.350857-18.651428 332.580572L48.128 924.964571l38.326857 38.473143 123.611429-124.269714c43.666286 38.546286 98.011429 55.442286 152.283428 55.954286a249.490286 249.490286 0 0 0 178.176-74.752L631.954286 728.502857l-71.168-71.533714 80.603428-81.115429-32.914285-38.473143z m364.470857-460.141714l-38.326857-38.546286-118.272 113.371429c-43.666286-38.473143-98.011429-55.369143-152.283429-55.881143a250.075429 250.075429 0 0 0-178.176 74.752l-91.428571 86.381714 355.693714 357.741715 86.016-86.454857c89.234286-88.795429 97.133714-231.277714 18.578286-332.434286l118.198857-118.857143v-0.073143z" p-id="7414"></path></svg>