<?xml version="1.0" standalone="no"?><!DOCTYPE svg PUBLIC "-//W3C//DTD SVG 1.1//EN" "http://www.w3.org/Graphics/SVG/1.1/DTD/svg11.dtd"><svg t="1568191619395" class="icon" viewBox="0 0 1024 1024" version="1.1" xmlns="http://www.w3.org/2000/svg" p-id="13662" xmlns:xlink="http://www.w3.org/1999/xlink" width="200" height="200"><defs><style type="text/css"></style></defs><path d="M511.850073 0c-282.717173 0-511.850044 229.132871-511.850044 511.850044s229.132871 511.850044 511.850044 511.850044 511.850044-229.132871 511.850044-511.850044-229.132871-511.850044-511.850044-511.850044zM822.858957 822.858928c-40.388168 40.388168-87.474373 72.178854-139.859025 94.272381-54.184126 22.893293-111.767256 34.489896-171.149859 34.489896-59.382603 0-116.965733-11.596603-171.149858-34.489896-52.384653-22.193498-99.370887-53.884214-139.859026-94.272381-40.388168-40.388168-72.178854-87.474373-94.272381-139.859026C83.675515 628.815777 72.078912 571.232647 72.078912 511.850044s11.596603-116.965733 34.489896-171.149859c22.193498-52.384653 53.884214-99.370887 94.272381-139.859025 40.388168-40.388168 87.474373-72.178854 139.859026-94.272381 54.184126-22.893293 111.767256-34.489896 171.149858-34.489896 59.382603 0 116.965733 11.596603 171.149859 34.489896 52.384653 22.193498 99.370887 53.884214 139.859025 94.272381 40.388168 40.388168 72.178854 87.474373 94.272381 139.859025 22.893293 54.184126 34.489896 111.767256 34.489896 171.149859s-11.596603 116.965733-34.489896 171.149858c-22.093527 52.384653-53.884214 99.470858-94.272381 139.859026z" p-id="13663"></path><path d="M736.884145 162.652348c-10.596895-9.197305-26.592209-9.79713-38.088841-0.799766L135.260402 605.122718c-0.099971 0-0.099971 0.099971-0.199941 0.099971-0.199941 0.199941-0.399883 0.399883-0.699795 0.499853-0.199941 0.099971-0.299912 0.299912-0.499854 0.399883l-0.499853 0.499854-0.599825 0.599824-0.299912 0.299912c-2.199356 2.199356-3.998828 4.798594-5.398418 7.497803-0.099971 0.099971-0.099971 0.299912-0.199942 0.399883-0.099971 0.099971-0.099971 0.299912-0.199941 0.399883-1.299619 2.79918-2.299326 5.898272-2.699209 9.197306v0.09997c0 0.299912-0.099971 0.599824-0.099971 0.799766 0 0.199941 0 0.499854-0.099971 0.699795v3.598946c0 0.299912 0 0.699795 0.099971 0.999707 0 0.199941 0 0.399883 0.099971 0.599824 0 0.299912 0.099971 0.599824 0.099971 0.899736 0 0.199941 0.099971 0.399883 0.09997 0.599825 0 0.299912 0.099971 0.499854 0.099971 0.799765 0 0.199941 0.099971 0.399883 0.099971 0.699795 0.099971 0.299912 0.099971 0.499854 0.199941 0.799766 0.099971 0.199941 0.099971 0.499854 0.199941 0.699795 0.099971 0.199941 0.099971 0.499854 0.199942 0.699795 0.099971 0.199941 0.099971 0.499854 0.199941 0.699795 0.099971 0.199941 0.099971 0.499854 0.199942 0.699795 0.099971 0.199941 0.199941 0.499854 0.199941 0.699795 0.099971 0.199941 0.199941 0.499854 0.299912 0.699795 0.099971 0.199941 0.199941 0.499854 0.299912 0.699795l0.299913 0.599824c0.099971 0.199941 0.199941 0.499854 0.299912 0.699795l0.299912 0.599824c0.099971 0.199941 0.299912 0.499854 0.399883 0.699795 0.099971 0.199941 0.199941 0.399883 0.299912 0.499854 0.199941 0.299912 0.299912 0.499854 0.499853 0.799766 0.099971 0.199941 0.199941 0.299912 0.299913 0.499853 0.199941 0.299912 0.399883 0.499854 0.499853 0.799766 0.099971 0.099971 0.199941 0.299912 0.299912 0.399883 0.199941 0.299912 0.399883 0.599824 0.599825 0.799765 0.099971 0.099971 0.099971 0.199941 0.199941 0.299913l0.099971 0.09997c0.299912 0.399883 0.699795 0.899736 1.099677 1.29962 0.099971 0.099971 0.199941 0.199941 0.199942 0.299912 0.299912 0.299912 0.599824 0.599824 0.799766 0.899736l0.599824 0.599824c0.199941 0.199941 0.399883 0.299912 0.499853 0.499854 0.199941 0.199941 0.499854 0.399883 0.699795 0.599824 0.199941 0.099971 0.299912 0.299912 0.499854 0.399883 0.299912 0.199941 0.499854 0.399883 0.799766 0.599824 0.099971 0.099971 0.299912 0.199941 0.399882 0.299912 0.899736 0.699795 1.799473 1.299619 2.69921 1.799473 0.199941 0.099971 0.399883 0.299912 0.699795 0.399883l0.599824 0.299912c0.299912 0.099971 0.599824 0.299912 0.799766 0.399883 0.199941 0.099971 0.399883 0.199941 0.499853 0.199942 0.299912 0.199941 0.699795 0.299912 0.999707 0.399882 0.099971 0.099971 0.299912 0.099971 0.399883 0.199942 0.399883 0.199941 0.799766 0.299912 1.199649 0.399883 0.099971 0 0.199941 0.099971 0.299912 0.09997 0.499854 0.199941 0.899736 0.299912 1.39959 0.399883h0.099971c1.599531 0.399883 3.199063 0.799766 4.798594 0.899737h0.299912c0.399883 0 0.799766 0.099971 1.299619 0.09997h1.39959l256.924729 3.498975 109.267988 232.631846v0.099971c0.299912 0.599824 0.599824 1.199649 0.899736 1.699502 0.099971 0.199941 0.199941 0.299912 0.299913 0.499854 0.199941 0.399883 0.499854 0.799766 0.799765 1.299619 0.099971 0.099971 0.199941 0.299912 0.299912 0.399883 0.299912 0.499854 0.599824 0.899736 0.999708 1.39959 0.199941 0.199941 0.299912 0.399883 0.499853 0.599824 0.199941 0.299912 0.499854 0.599824 0.799766 0.899736 0.199941 0.199941 0.299912 0.399883 0.499853 0.499854 0.399883 0.399883 0.799766 0.799766 1.099678 1.199649l0.499854 0.499853c0.299912 0.299912 0.699795 0.599824 0.999707 0.899737l0.299912 0.299912 1.499561 1.199648c0.099971 0.099971 0.199941 0.099971 0.299912 0.199942 0.499854 0.299912 0.999707 0.699795 1.39959 0.999707 0.099971 0 0.099971 0.099971 0.199941 0.09997 1.099678 0.699795 2.299326 1.299619 3.498975 1.799473 0.099971 0 0.199941 0.099971 0.299912 0.099971 0.599824 0.199941 1.099678 0.499854 1.699502 0.699795h0.099971l1.799473 0.599824c0.199941 0.099971 0.299912 0.099971 0.499853 0.099971 0.199941 0.099971 0.499854 0.099971 0.699795 0.199941 0.199941 0 0.299912 0.099971 0.499854 0.099971 0.299912 0.099971 0.599824 0.099971 0.899736 0.199941 0.399883 0.099971 0.699795 0.099971 1.099678 0.199942 0.299912 0 0.599824 0.099971 0.799766 0.099971 0.399883 0.099971 0.799766 0.099971 1.199648 0.09997 0.199941 0 0.499854 0 0.699795 0.099971 0.599824 0 1.299619 0.099971 1.899444 0.099971 0.699795 0 1.499561 0 2.199356-0.099971h0.499853c0.699795-0.099971 1.39959-0.199941 2.199356-0.299912 0.099971 0 0.199941 0 0.299912-0.099971 0.599824-0.099971 1.299619-0.299912 1.899443-0.399883 0.199941 0 0.299912-0.099971 0.499854-0.09997l2.099385-0.599825c0.099971 0 0.199941-0.099971 0.299912-0.09997 0.599824-0.199941 1.199649-0.399883 1.699502-0.699795 0.199941-0.099971 0.399883-0.199941 0.599824-0.199942 0.099971-0.099971 0.299912-0.099971 0.399883-0.199941 0.499854-0.199941 0.999707-0.499854 1.499561-0.699795 0 0 0.099971 0 0.099971-0.099971 0.699795-0.399883 1.299619-0.699795 1.899443-1.099678 0.099971 0 0.099971-0.099971 0.199942-0.09997 0.699795-0.399883 1.299619-0.899736 1.899443-1.29962l0.099971-0.09997c1.199649-0.999707 2.399297-1.999414 3.399004-3.099092l0.199941-0.199942c0.499854-0.499854 0.999707-1.099678 1.39959-1.699502 0.099971-0.099971 0.199941-0.199941 0.299913-0.399883 0.399883-0.599824 0.799766-1.099678 1.199648-1.699502 0.099971-0.099971 0.099971-0.199941 0.199942-0.399883l0.899736-1.49956c0.099971-0.199941 0.199941-0.299912 0.299912-0.499854l0.899736-1.799473 0.299913-0.599824c0.299912-0.599824 0.499854-1.299619 0.799765-1.899444 0.099971-0.099971 0.099971-0.299912 0.199942-0.499853 0.199941-0.699795 0.499854-1.39959 0.599824-2.199356v-0.099971l171.249829-696.096065c2.899151-11.396661-1.39959-23.093234-10.097042-30.191155zM537.842458 792.667773L456.966152 620.518208c-2.299326-4.798594-5.698331-8.797423-9.697159-11.696574-4.998536-3.898858-11.19672-6.298155-18.094698-6.398125L239.030001 599.82427 668.304237 262.223177 537.842458 792.667773z" p-id="13664"></path></svg>