<?xml version="1.0" standalone="no"?><!DOCTYPE svg PUBLIC "-//W3C//DTD SVG 1.1//EN" "http://www.w3.org/Graphics/SVG/1.1/DTD/svg11.dtd"><svg t="1568610049880" class="icon" viewBox="0 0 1024 1024" version="1.1" xmlns="http://www.w3.org/2000/svg" p-id="2052" xmlns:xlink="http://www.w3.org/1999/xlink" width="200" height="200"><defs><style type="text/css"></style></defs><path d="M512 0C229.376 0 0 229.376 0 512s229.376 512 512 512 512-229.376 512-512S794.624 0 512 0z m0 768c-141.312 0-256-114.688-256-256s114.688-256 256-256 256 114.688 256 256-114.688 256-256 256z m197.632-507.392c-47.616-37.888-105.472-60.928-165.888-67.072v-128c97.792 6.656 186.368 44.544 257.024 104.448l-91.136 90.624zM480.256 193.536C419.328 199.68 361.984 223.232 314.368 260.608L223.232 169.984c72.192-60.928 162.304-97.792 257.024-104.448v128zM267.776 305.152C227.84 352.768 202.24 410.624 194.56 472.064H66.048c8.704-95.744 47.616-185.856 111.616-257.536l90.112 90.624z m-74.752 230.912c4.608 63.488 28.16 123.904 67.584 174.08l-91.136 91.136c-62.976-74.24-99.84-167.424-104.448-264.704l128-0.512z m112.128 220.16c49.152 41.984 110.08 68.096 174.592 74.24v128c-98.304-6.656-191.488-46.08-265.216-112.128l90.624-90.112z m238.592 74.24c64.512-6.656 125.44-32.256 174.592-74.24l90.624 90.624a448.27136 448.27136 0 0 1-265.216 112.128v-128.512z m219.648-120.832c39.424-49.664 62.976-110.592 67.584-174.08h128c-5.12 97.28-41.984 190.464-104.448 264.704l-91.136-90.624zM829.44 472.064c-7.68-61.44-33.28-119.296-73.216-166.912l90.624-90.624c64 71.68 102.912 161.792 111.616 257.024l-129.024 0.512z" fill="#e6e6e6" p-id="2053"></path></svg>
