<?xml version="1.0" standalone="no"?><!DOCTYPE svg PUBLIC "-//W3C//DTD SVG 1.1//EN" "http://www.w3.org/Graphics/SVG/1.1/DTD/svg11.dtd"><svg t="1568191011688" class="icon" viewBox="0 0 1024 1024" version="1.1" xmlns="http://www.w3.org/2000/svg" p-id="12010" xmlns:xlink="http://www.w3.org/1999/xlink" width="200" height="200"><defs><style type="text/css"></style></defs><path d="M412.16 900.198c-30.72 0-59.7-11.98-81.408-33.69L151.654 687.412c-21.708-21.709-33.69-50.688-33.69-81.408s11.982-59.699 33.69-81.408l358.093-358.093c21.709-21.708 50.688-33.69 81.408-33.69h179.098c63.488 0 115.097 51.61 115.097 115.098v179.098c0 30.72-11.98 59.7-33.69 81.408L493.569 866.509c-21.709 21.709-50.586 33.69-81.408 33.69zM591.258 183.91c-17.101 0-33.178 6.656-45.261 18.74L187.904 560.742c-12.083 12.084-18.74 28.16-18.74 45.261 0 17.101 6.657 33.178 18.74 45.261l179.098 179.098c12.083 12.083 28.16 18.739 45.26 18.739s33.178-6.656 45.261-18.74L815.616 472.27c12.083-12.083 18.74-28.16 18.74-45.261v-179.2c0-35.226-28.673-63.898-63.898-63.898h-179.2z m89.497 268.596c-63.488 0-115.097-51.61-115.097-115.098s51.61-115.2 115.097-115.2c63.488 0 115.098 51.61 115.098 115.098s-51.61 115.2-115.098 115.2z m0-179.098c-35.225 0-63.897 28.672-63.897 63.898s28.672 63.897 63.897 63.897 63.898-28.672 63.898-63.897c0.102-35.124-28.672-63.898-63.898-63.898z" p-id="12011"></path></svg>